# xmcd
#
# Track frame offsets: 
#        150
#        20439
#        34414
#        49780
#        61273
#        94759
#        112054
#        127504
#        140953
#        152437
#        173083
#        186292
#        205768
#        220747
#        234466
#        250705
#        261145
#        278653
#        291349
#        312946
#
# Disc length: 4356 seconds
#
# Revision: 0
# Processed by: cddbd v1.5.2PL0 Copyright (c) Steve Scherf et al.
# Submitted via: ExactAudioCopy v1.1
#
DISCID=1f110214
DTITLE=Various Artist - De Pré Historie - De Jaren '70 Vol. 2 - De Ultieme 10
DTITLE=CD Collectie - 1974
DYEAR=2019
DGENRE=Top 40
TTITLE0=Barry White - Can't Get Enough Of Your Love, Babe
TTITLE1=George McCrae - Rock Your Baby
TTITLE2=The Rubettes - Sugar Baby Love
TTITLE3=Charles Aznavour - She
TTITLE4=Dalida - Gigi L'Amoroso
TTITLE5=10CC - The Wall Street Shuffle
TTITLE6=Terry Jacks - Seasons In The Sun
TTITLE7=The Cats - Be My Day
TTITLE8=Spooky and Sue - Swinging On A Star
TTITLE9=The Three Degrees - Dirty Ol' Man
TTITLE10=Pierre Groscolas - Lady Lay
TTITLE11=Johan Verminnen - Laat Me Nu Toch Niet Alleen
TTITLE12=Paper Lace - The Night Chicago Died
TTITLE13=Leo Sayer - Long Tall Glasses
TTITLE14=Slade - Far Far Away
TTITLE15=Les Reed Orchestra - Man Of Action
TTITLE16=Barry Blue - Do You Wanna Dance
TTITLE17=Wally Tax - Miss Wonderful
TTITLE18=The Trammps - Love Epidemic
TTITLE19=Marvin Hamlisch - The Entertainer
EXTD=
EXTT0=
EXTT1=
EXTT2=
EXTT3=
EXTT4=
EXTT5=
EXTT6=
EXTT7=
EXTT8=
EXTT9=
EXTT10=
EXTT11=
EXTT12=
EXTT13=
EXTT14=
EXTT15=
EXTT16=
EXTT17=
EXTT18=
EXTT19=
PLAYORDER=
